<svg version="1.1" xmlns="http://www.w3.org/2000/svg" viewBox="0 0 929.2370820668693 479.22722016651255" width="1858.4741641337387" height="958.4544403330251">
  <!-- svg-source:excalidraw -->
  
  <defs>
    <style class="style-fonts">
      @font-face {
        font-family: "Virgil";
        src: url("https://excalidraw.com/Virgil.woff2");
      }
      @font-face {
        font-family: "Cascadia";
        src: url("https://excalidraw.com/Cascadia.woff2");
      }
    </style>
  </defs>
  <g stroke-linecap="round" transform="translate(10 314.12718969795753) rotate(0 175.05048888366804 20.594175162784495)"><path d="M-0.93 -0.02 C124.12 1.32, 249.28 0.49, 349.3 -0.46 M-0.3 -0.02 C119.64 -0.9, 238.34 -0.28, 349.87 -0.46 M352.07 0 C349.43 15.85, 351.68 30.99, 351.1 42.73 M349.44 0.46 C349.93 10.6, 349.51 22.78, 350.04 40.53 M349.88 41.19 C275.76 39.29, 203.4 40.21, -0.61 42.08 M349.55 40.89 C256.14 41.6, 161.96 42.08, 0.16 40.79 M1.14 41.1 C-0.83 30.55, 0.16 16.76, -0.74 -1.68 M-0.29 41.52 C0.55 26.25, 0.82 11.52, 0.36 0.98" stroke="#000000" stroke-width="1" fill="none"></path></g><g transform="translate(69.5504888836681 321.221364860742) rotate(0 115.5 13.5)"><text x="115.5" y="21" font-family="Cascadia, Segoe UI Emoji" font-size="21.7316918701173px" fill="#000000" text-anchor="middle" style="white-space: pre;" direction="ltr">Pyodide + micropip</text></g><g stroke-linecap="round" transform="translate(10 271.8549354164525) rotate(0 175.05048888366804 20.594175162784467)"><path d="M-0.36 1.11 C78.4 2.11, 154.94 1.59, 350.04 -0.76 M-0.51 0.44 C128.67 -0.2, 257.36 -0.15, 350.26 0.51 M351.9 -1.79 C351.24 14.31, 351.24 30.69, 349.77 43.05 M350.07 0.43 C350.57 10.54, 349.15 19.56, 351.02 40.26 M349.99 41.97 C263.28 42.44, 176.69 40.21, -1.23 41.39 M349.7 41.34 C237.97 38.92, 125.45 39.46, -0.3 40.59 M0.71 39.21 C1.76 30.74, 0.33 14.54, 0.59 -0.57 M-0.2 42.03 C-0.05 25.6, -0.83 9.77, 0.61 -0.41" stroke="#000000" stroke-width="1" fill="none"></path></g><g transform="translate(133.0504888836681 278.949110579237) rotate(0 52 13.5)"><text x="52" y="21" font-family="Cascadia, Segoe UI Emoji" font-size="21.7316918701173px" fill="#000000" text-anchor="middle" style="white-space: pre;" direction="ltr">PyScript</text></g><g stroke-linecap="round" transform="translate(11.08390395593608 229.58268113494756) rotate(0 175.05048888366804 20.594175162784467)"><path d="M-0.99 1.08 C118.13 -2.58, 234.61 -3.16, 350.73 -1.02 M-0.23 0.47 C139.24 -0.27, 277.5 -0.34, 350.11 0.46 M351.24 -1.08 C350.95 10.88, 348.46 19.75, 351.39 40.52 M349.49 -0.88 C349.49 11.31, 350.28 24.2, 350.36 40.87 M350.5 40.37 C240.17 42.24, 129.89 42.43, 0.73 40.12 M350.63 41.51 C276.79 39.68, 203.67 40.62, -0.41 41.54 M-0.83 40.81 C-0.88 32.91, -0.97 24.08, 1.98 -1.84 M-0.62 40.96 C1.03 33.21, -0.09 24.76, -0.83 -0.11" stroke="#000000" stroke-width="1" fill="none"></path></g><g transform="translate(70.63439283960406 236.67685629773206) rotate(0 115.5 13.5)"><text x="115.5" y="21" font-family="Cascadia, Segoe UI Emoji" font-size="21.7316918701173px" fill="#000000" text-anchor="middle" style="white-space: pre;" direction="ltr">glom + black + ...</text></g><g stroke-linecap="round" transform="translate(11.08390395593608 187.3104268534426) rotate(0 175.05048888366804 20.594175162784467)"><path d="M1.27 0.23 C90.86 -1.19, 179.75 -0.63, 350.09 0.2 M0.49 0.46 C114.59 -2.28, 228.63 -1.35, 350.56 -0.29 M350.7 -0.85 C349.4 9.64, 349.81 17.32, 351.04 40.41 M350.57 0.54 C350.74 11.78, 351.28 22.72, 349.68 40.57 M350.66 41.47 C251.47 43.78, 154.73 43.06, 0.03 41.09 M349.69 40.59 C261.37 41.5, 172.39 41.21, 0.1 41.67 M1.11 41.31 C0.25 28.89, 1.65 20.14, 1.91 -0.76 M-0.87 41.52 C0.33 28.08, -0.11 16.28, 0.96 0.82" stroke="#000000" stroke-width="1" fill="none"></path></g><g transform="translate(121.63439283960406 194.4046020162271) rotate(0 64.5 13.5)"><text x="64.5" y="21" font-family="Cascadia, Segoe UI Emoji" font-size="21.7316918701173px" fill="#000000" text-anchor="middle" style="white-space: pre;" direction="ltr">glompad.py</text></g><g stroke-linecap="round" transform="translate(546.1031452358927 187) rotate(0 186.5669684154883 21.94905510770451)"><path d="M-0.21 -0.57 C130.86 -0.49, 259.4 -0.58, 372.34 -1.03 M-0.58 -0.35 C112.8 0.65, 225.41 0.61, 372.91 0.2 M371.5 0.15 C372.85 15.26, 374.94 32, 373.34 44.54 M373.57 0.33 C372.31 12.79, 372.45 25.3, 372.81 44.37 M372.82 45.03 C269.03 44.05, 164.97 42.76, 0.18 44.96 M373.74 43.52 C292.32 44.79, 210.75 44.27, 0.04 43.33 M1.97 45.79 C0.5 33.52, 0.33 21.47, 0.72 1.62 M0.25 44.7 C0.54 30.68, 0 18.13, -0.3 0.68" stroke="#000000" stroke-width="1" fill="none"></path></g><g transform="translate(561.6701136513811 194.4490551077045) rotate(0 171 14.5)"><text x="171" y="23" font-family="Cascadia, Segoe UI Emoji" font-size="23.203446442873904px" fill="#000000" text-anchor="middle" style="white-space: pre;" direction="ltr">app.ts + Pad.svelte + ...</text></g><g stroke-linecap="round" transform="translate(546.1031452358927 230.89811021540902) rotate(0 186.5669684154883 21.94905510770451)"><path d="M0.96 0.87 C74.77 -0.53, 150.49 0.22, 372.54 -0.3 M0.4 0.59 C127.63 1.3, 254.7 2.32, 373.08 -0.28 M374.65 1.08 C374.96 9.79, 371.72 19.76, 373.9 43.14 M373.2 0.07 C372.46 12.76, 372.4 27.87, 373.02 43.96 M372.1 44.95 C294.81 43.28, 215.36 43.07, 0 43.85 M373.74 43.9 C243.34 45.81, 114.3 45.55, -0.21 43.31 M-0.25 43.56 C-1.8 34.1, 0.46 20.17, 1.51 0.27 M-0.3 44.1 C-0.22 33.55, -0.95 23.86, 0.95 0.48" stroke="#000000" stroke-width="1" fill="none"></path></g><g transform="translate(561.6701136513811 238.34716532311353) rotate(0 171 14.5)"><text x="171" y="23" font-family="Cascadia, Segoe UI Emoji" font-size="23.203446442873904px" fill="#000000" text-anchor="middle" style="white-space: pre;" direction="ltr">CodeMirror + Sentry + ...</text></g><g stroke-linecap="round" transform="translate(546.1031452358927 273.64100700409676) rotate(0 186.5669684154883 19.63862825426193)"><path d="M0.31 1.16 C112.35 2.75, 222.76 0.82, 373.59 -0.42 M0.44 -0.06 C80.33 0.06, 159.87 -0.35, 372.83 -0.47 M374.91 1.59 C374.38 15.2, 374.25 28.49, 372.5 37.31 M372.85 0.55 C372.2 12.45, 372.13 26.64, 373.38 40.07 M372.02 39.21 C296.87 40.73, 220.86 40.04, -0.63 39.95 M373.58 39.11 C285.14 41.69, 197.68 40.96, 0.46 39.76 M-1.84 39.98 C1.83 24.18, 0.82 10.9, 0.2 -1.35 M0.63 38.63 C-0.26 26.57, 0.09 12.79, 0.28 -0.66" stroke="#000000" stroke-width="1" fill="none"></path></g><g transform="translate(629.6701136513811 278.77963525835867) rotate(0 103 14.5)"><text x="103" y="23" font-family="Cascadia, Segoe UI Emoji" font-size="23.203446442873904px" fill="#000000" text-anchor="middle" style="white-space: pre;" direction="ltr">Svelte + Rollup</text></g><g stroke-linecap="round" transform="translate(546.1031452358927 314.0734769393419) rotate(0 186.5669684154883 19.92743161094225)"><path d="M0.02 -0.32 C89.87 -0.03, 181.62 1.47, 373.74 0.05 M-0.42 0.38 C121.61 0.79, 242.84 1.04, 372.95 -0.3 M373.41 -1.61 C371.53 9.56, 374.47 14.8, 371.48 40.61 M372.14 -0.76 C371.93 13.06, 372.79 28.74, 372.18 39.76 M372.9 40.63 C274.13 40.95, 174.57 42.45, -0.79 39.38 M373.63 40.28 C262.84 40.42, 153.53 40.19, 0.21 39.64 M0.77 41.5 C0.1 27.23, -0.06 14.76, -0.96 -1.82 M-0.79 39 C-1.15 29.76, -0.28 21.69, 0.92 0.08" stroke="#000000" stroke-width="1" fill="none"></path></g><g transform="translate(663.6701136513811 319.5009085502842) rotate(0 69 14.5)"><text x="69" y="23" font-family="Cascadia, Segoe UI Emoji" font-size="23.203446442873904px" fill="#000000" text-anchor="middle" style="white-space: pre;" direction="ltr">TypeScript</text></g><g stroke-linecap="round" transform="translate(261.67011365138103 429.372356944628) rotate(0 186.56696841548836 19.92743161094228)"><path d="M0.91 -0.05 C88.5 -1.53, 175.82 -2.16, 372.5 -0.33 M-0.54 0.53 C123.84 0.53, 247.73 0.36, 373.41 -0.59 M374.98 -1.17 C373.23 10.08, 372.5 18.7, 374.73 41.85 M372.37 -0.13 C372.39 10.99, 374.19 19.32, 374.02 40.7 M372.32 40.38 C244.47 41.24, 117.64 40.35, 0.82 39 M372.64 40.32 C230.84 41.35, 87.06 41.17, 0.6 39.59 M1.25 40.5 C1.4 28.27, -0.98 19.1, -1.25 1.73 M-0.78 39.26 C0.07 27.63, 0.71 15.33, 0.13 -0.31" stroke="#000000" stroke-width="1" fill="none"></path></g><g transform="translate(324.73708206686945 434.7997885555702) rotate(0 123.5 14.5)"><text x="123.5" y="23" font-family="Cascadia, Segoe UI Emoji" font-size="23.203446442873904px" fill="#000000" text-anchor="middle" style="white-space: pre;" direction="ltr">JS browser runtime</text></g><g mask="url(#mask-8Q1p4zODxYm9BOXvjUNSy)" stroke-linecap="round"><g transform="translate(182.73708206686933 355) rotate(0 107.31892750158755 36.42815498804555)"><path d="M-1.41 0.7 C49.64 15.58, 98.17 31.58, 216.05 72.69 M0.52 0.16 C76.33 26.24, 151.05 51.62, 215.09 70.65" stroke="#000000" stroke-width="1" fill="none"></path></g><g transform="translate(182.73708206686933 355) rotate(0 107.31892750158755 36.42815498804555)"><path d="M216.67 70.35 L199.95 71.44 L205.56 60.79 L215.89 72.47" stroke="none" stroke-width="0" fill="#000000" fill-rule="evenodd"></path><path d="M213.85 71.26 C211.62 70.72, 207.52 70.89, 201.6 74.16 M215.54 70.79 C210.48 71.45, 204.42 72.46, 200.76 72.38 M201.02 72.98 C200.3 69.72, 202.09 66.94, 203.83 60.45 M200.74 72.59 C201.62 69.2, 201.34 66.3, 203.44 60.8 M205.42 60.81 C207.26 65.13, 212.24 66.24, 214.04 69.29 M204.67 60.33 C208.13 63.45, 211.63 68.05, 214.59 71.33 M215.09 70.65 C215.09 70.65, 215.09 70.65, 215.09 70.65 M215.09 70.65 C215.09 70.65, 215.09 70.65, 215.09 70.65" stroke="#000000" stroke-width="1" fill="none"></path></g></g><mask id="mask-8Q1p4zODxYm9BOXvjUNSy"><rect x="0" y="0" fill="#fff" width="497.2219638318686" height="526"></rect><rect x="265.47952294936897" y="378.5" fill="#000" width="49" height="24" opacity="1"></rect></mask><g transform="translate(265.47952294936897 378.5) rotate(0 24.576486619087916 12.928154988045549)"><text x="24.5" y="20" font-family="Cascadia, Segoe UI Emoji" font-size="20px" fill="#000000" text-anchor="middle" style="white-space: pre;" direction="ltr">WASM</text></g><g mask="url(#mask-Py24aRw5O5_QKgCcY-kQp)" stroke-linecap="round"><g transform="translate(683.1674673782613 362) rotate(0 -100.78859092994628 31.860428653613383)"><path d="M-0.15 1.69 C-53.69 14.98, -105.57 34.32, -201.96 63.83 M0.38 -0.11 C-44.54 15.67, -90.38 28.37, -200.71 63.16" stroke="#000000" stroke-width="1" fill="none"></path></g><g transform="translate(683.1674673782613 362) rotate(0 -100.78859092994628 31.860428653613383)"><path d="M-201.42 62.55 L-189.73 52.66 L-183.96 66.7 L-200.25 65.15" stroke="none" stroke-width="0" fill="#000000" fill-rule="evenodd"></path><path d="M-200.83 64.6 C-198.22 59.08, -194.64 58.82, -190.67 53.78 M-200.38 63.07 C-197.9 61.51, -196.42 58.14, -189.61 53.21 M-190.31 52.09 C-189 57.05, -187.75 59.71, -186.38 64.5 M-189.12 53 C-188.13 56.85, -188.04 59.77, -186.32 65.28 M-186.76 63.73 C-192.39 63.89, -197.22 64.59, -199.49 62.47 M-185.67 65.42 C-190.77 64.98, -195.97 63.64, -201.22 62.96 M-200.71 63.16 C-200.71 63.16, -200.71 63.16, -200.71 63.16 M-200.71 63.16 C-200.71 63.16, -200.71 63.16, -200.71 63.16" stroke="#000000" stroke-width="1" fill="none"></path></g></g><mask id="mask-Py24aRw5O5_QKgCcY-kQp"><rect x="0" y="0" fill="#fff" width="983.8802757808912" height="525"></rect><rect x="546.8110631769464" y="381.5" fill="#000" width="72" height="24" opacity="1"></rect></mask><g transform="translate(546.8110631769463 381.5) rotate(0 35.567813271368664 12.360428653613383)"><text x="36" y="20" font-family="Cascadia, Segoe UI Emoji" font-size="20px" fill="#000000" text-anchor="middle" style="white-space: pre;" direction="ltr">Rollup</text></g><g stroke-linecap="round"><g transform="translate(362.73708206686933 204) rotate(0 87.42439316073433 -0.407419618758297)"><path d="M0.85 -1.55 C52.94 2.76, 111.01 -0.11, 173.48 -1.52 M0.92 0.05 C40.24 -0.21, 79.18 1.22, 174 -0.69" stroke="#000000" stroke-width="1" fill="none"></path></g><g transform="translate(362.73708206686933 204) rotate(0 87.42439316073433 -0.407419618758297)"><path d="M2.42 -2.21 L13.14 -8.67 L13.48 6.6 L1.1 0.23" stroke="none" stroke-width="0" fill="#000000" fill-rule="evenodd"></path><path d="M1.48 -2.71 C3.89 -2.29, 10.72 -6.38, 14.13 -8.85 M1.54 -1.51 C4.22 -3.61, 6.67 -3.95, 14.52 -8.23 M13.45 -8.29 C14.54 -4.67, 14.65 -3.48, 15.54 6.13 M13.98 -8.27 C14.52 -5.16, 14.16 -0.98, 14.17 5.19 M15.56 5.7 C10.4 3.62, 3.2 0.47, 1.01 -0.07 M14.3 4.48 C10.84 3.85, 7.96 1.66, 0.69 -1.85 M0.85 -1.55 C0.85 -1.55, 0.85 -1.55, 0.85 -1.55 M0.85 -1.55 C0.85 -1.55, 0.85 -1.55, 0.85 -1.55" stroke="#000000" stroke-width="1" fill="none"></path></g><g transform="translate(362.73708206686933 204) rotate(0 87.42439316073433 -0.407419618758297)"><path d="M175.57 -1.35 L159.12 4.87 L159.44 -5.21 L174.25 1.09" stroke="none" stroke-width="0" fill="#000000" fill-rule="evenodd"></path><path d="M174.64 -1.85 C168.38 2.35, 166.67 2.25, 160.11 4.69 M174.69 -0.65 C171.23 0.04, 167.44 2.61, 160.5 5.31 M159.43 5.25 C160.46 3.62, 160.57 -0.43, 161.5 -5.68 M159.95 5.27 C160.52 2.1, 160.15 0, 160.14 -6.62 M161.53 -6.11 C166.76 -3.18, 169.89 -1.52, 174.16 0.79 M160.26 -7.33 C163.42 -5.09, 167.26 -4.14, 173.84 -1 M174 -0.69 C174 -0.69, 174 -0.69, 174 -0.69 M174 -0.69 C174 -0.69, 174 -0.69, 174 -0.69" stroke="#000000" stroke-width="1" fill="none"></path></g></g><mask></mask><g transform="translate(377.73708206686933 163) rotate(0 77 12.5)"><text x="0" y="20" font-family="Cascadia, Segoe UI Emoji" font-size="20px" fill="#c92a2a" text-anchor="start" style="white-space: pre;" direction="ltr">Svelte Stores</text></g><g transform="translate(48.737082066869334 118) rotate(0 136 17.5)"><text x="0" y="28" font-family="Cascadia, Segoe UI Emoji" font-size="28.799999999999997px" fill="#000000" text-anchor="start" style="white-space: pre;" direction="ltr">"Business" Logic</text></g><g transform="translate(579.7370820668693 118) rotate(0 144.5 17.5)"><text x="0" y="28" font-family="Cascadia, Segoe UI Emoji" font-size="28.799999999999997px" fill="#000000" text-anchor="start" style="white-space: pre;" direction="ltr">Interaction / DOM</text></g><g transform="translate(151.73708206686933 10) rotate(0 296.5 22)"><text x="0" y="35" font-family="Cascadia, Segoe UI Emoji" font-size="36px" fill="#e09200" text-anchor="start" style="white-space: pre;" direction="ltr">Glompad Architecture Diagram</text></g><g transform="translate(329.73708206686933 58.5) rotate(0 118.5 10)"><text x="0" y="16" font-family="Cascadia, Segoe UI Emoji" font-size="16px" fill="#000" text-anchor="start" style="white-space: pre;" direction="ltr">"The best of both worlds"</text></g></svg>